<svg width="25" height="25" viewBox="0 0 25 25" fill="none" xmlns="http://www.w3.org/2000/svg">
<path d="M2.49316 10.7227H22.4932" stroke="#292D32" stroke-width="1.5" stroke-miterlimit="10" stroke-linecap="round" stroke-linejoin="round"/>
<path d="M12.0434 21.2244H6.93341C3.38341 21.2244 2.4834 20.3444 2.4834 16.8344V8.61438C2.4834 5.43438 3.22343 4.41438 6.01343 4.25438C6.29343 4.24438 6.60341 4.23438 6.93341 4.23438H18.0434C21.5934 4.23438 22.4934 5.11437 22.4934 8.62437V13.0344" stroke="#292D32" stroke-width="1.5" stroke-linecap="round" stroke-linejoin="round"/>
<path opacity="0.4" d="M6.49316 16.7227H10.4932" stroke="#292D32" stroke-width="1.5" stroke-miterlimit="10" stroke-linecap="round" stroke-linejoin="round"/>
<path opacity="0.4" d="M22.4932 18.7227C22.4932 19.4727 22.2831 20.1827 21.9131 20.7827C21.2231 21.9427 19.9532 22.7227 18.4932 22.7227C17.0332 22.7227 15.7632 21.9427 15.0732 20.7827C14.7032 20.1827 14.4932 19.4727 14.4932 18.7227C14.4932 16.5127 16.2832 14.7227 18.4932 14.7227C20.7032 14.7227 22.4932 16.5127 22.4932 18.7227Z" stroke="#292D32" stroke-width="1.5" stroke-miterlimit="10" stroke-linecap="round" stroke-linejoin="round"/>
<path opacity="0.4" d="M16.9336 18.7222L17.9236 19.7122L20.0536 17.7422" stroke="#292D32" stroke-width="1.5" stroke-linecap="round" stroke-linejoin="round"/>
</svg>
