<svg width="25" height="25" viewBox="0 0 25 25" fill="none" xmlns="http://www.w3.org/2000/svg">
<path d="M9.65273 11.5927C9.55273 11.5827 9.43273 11.5827 9.32273 11.5927C6.94273 11.5127 5.05273 9.56266 5.05273 7.16266C5.05273 4.71266 7.03273 2.72266 9.49273 2.72266C11.9427 2.72266 13.9327 4.71266 13.9327 7.16266C13.9227 9.56266 12.0327 11.5127 9.65273 11.5927Z" stroke="#292D32" stroke-width="1.5" stroke-linecap="round" stroke-linejoin="round"/>
<path opacity="0.4" d="M16.9034 4.72266C18.8434 4.72266 20.4034 6.29266 20.4034 8.22266C20.4034 10.1127 18.9034 11.6527 17.0334 11.7227C16.9534 11.7127 16.8634 11.7127 16.7734 11.7227" stroke="#292D32" stroke-width="1.5" stroke-linecap="round" stroke-linejoin="round"/>
<path d="M4.65289 15.2827C2.23289 16.9027 2.23289 19.5427 4.65289 21.1527C7.40289 22.9927 11.9129 22.9927 14.6629 21.1527C17.0829 19.5327 17.0829 16.8927 14.6629 15.2827C11.9229 13.4527 7.41289 13.4527 4.65289 15.2827Z" stroke="#292D32" stroke-width="1.5" stroke-linecap="round" stroke-linejoin="round"/>
<path opacity="0.4" d="M18.833 20.7227C19.553 20.5727 20.233 20.2827 20.793 19.8527C22.353 18.6827 22.353 16.7527 20.793 15.5827C20.243 15.1627 19.573 14.8827 18.863 14.7227" stroke="#292D32" stroke-width="1.5" stroke-linecap="round" stroke-linejoin="round"/>
</svg>
