<svg width="25" height="25" viewBox="0 0 25 25" fill="none" xmlns="http://www.w3.org/2000/svg">
<path d="M13.1736 3.08828L19.0736 5.70828C20.7736 6.45828 20.7736 7.69828 19.0736 8.44828L13.1736 11.0683C12.5036 11.3683 11.4036 11.3683 10.7336 11.0683L4.83359 8.44828C3.13359 7.69828 3.13359 6.45828 4.83359 5.70828L10.7336 3.08828C11.4036 2.78828 12.5036 2.78828 13.1736 3.08828Z" stroke="#292D32" stroke-width="1.5" stroke-linecap="round" stroke-linejoin="round"/>
<path opacity="0.4" d="M3.16406 11.168C3.16406 12.008 3.79406 12.978 4.56406 13.318L11.3541 16.338C11.8741 16.568 12.4641 16.568 12.9741 16.338L19.7641 13.318C20.5341 12.978 21.1641 12.008 21.1641 11.168" stroke="#292D32" stroke-width="1.5" stroke-linecap="round" stroke-linejoin="round"/>
<path opacity="0.4" d="M3.16406 16.168C3.16406 17.098 3.71406 17.938 4.56406 18.318L11.3541 21.338C11.8741 21.568 12.4641 21.568 12.9741 21.338L19.7641 18.318C20.6141 17.938 21.1641 17.098 21.1641 16.168" stroke="#292D32" stroke-width="1.5" stroke-linecap="round" stroke-linejoin="round"/>
</svg>
