<svg width="25" height="25" viewBox="0 0 25 25" fill="none" xmlns="http://www.w3.org/2000/svg">
<path d="M19.1641 9.16797C19.1641 10.618 18.7341 11.948 17.9941 13.058C16.9141 14.658 15.2041 15.788 13.2141 16.078C12.8741 16.138 12.5241 16.168 12.1641 16.168C11.8041 16.168 11.4541 16.138 11.1141 16.078C9.12406 15.788 7.41406 14.658 6.33406 13.058C5.59406 11.948 5.16406 10.618 5.16406 9.16797C5.16406 5.29797 8.29406 2.16797 12.1641 2.16797C16.0341 2.16797 19.1641 5.29797 19.1641 9.16797Z" stroke="#292D32" stroke-width="1.5" stroke-linecap="round" stroke-linejoin="round"/>
<path opacity="0.4" d="M21.4141 18.6364L19.7641 19.0264C19.3941 19.1164 19.1041 19.3964 19.0241 19.7664L18.6741 21.2364C18.4841 22.0364 17.4641 22.2764 16.9341 21.6464L12.1641 16.1664L7.39414 21.6564C6.86414 22.2864 5.84414 22.0464 5.65414 21.2464L5.30414 19.7764C5.21414 19.4064 4.92414 19.1164 4.56414 19.0364L2.91414 18.6464C2.15414 18.4664 1.88414 17.5164 2.43414 16.9664L6.33414 13.0664C7.41414 14.6664 9.12414 15.7964 11.1141 16.0864C11.4541 16.1464 11.8041 16.1764 12.1641 16.1764C12.5241 16.1764 12.8741 16.1464 13.2141 16.0864C15.2041 15.7964 16.9141 14.6664 17.9941 13.0664L21.8941 16.9664C22.4441 17.5064 22.1741 18.4564 21.4141 18.6364Z" stroke="#292D32" stroke-width="1.5" stroke-linecap="round" stroke-linejoin="round"/>
<path opacity="0.4" d="M12.744 6.14797L13.334 7.32796C13.414 7.48796 13.624 7.64797 13.814 7.67797L14.884 7.85796C15.564 7.96796 15.724 8.46797 15.234 8.95797L14.404 9.78795C14.264 9.92795 14.184 10.198 14.234 10.398L14.474 11.428C14.664 12.238 14.234 12.5579 13.514 12.1279L12.514 11.538C12.334 11.428 12.034 11.428 11.854 11.538L10.854 12.1279C10.134 12.5479 9.70403 12.238 9.89403 11.428L10.134 10.398C10.174 10.208 10.104 9.92795 9.96404 9.78795L9.13404 8.95797C8.64404 8.46797 8.80404 7.97796 9.48404 7.85796L10.554 7.67797C10.734 7.64797 10.944 7.48796 11.024 7.32796L11.614 6.14797C11.904 5.50797 12.424 5.50797 12.744 6.14797Z" stroke="#292D32" stroke-width="1.5" stroke-linecap="round" stroke-linejoin="round"/>
</svg>
