<svg width="37" height="37" viewBox="0 0 37 37" fill="none" xmlns="http://www.w3.org/2000/svg">
<path opacity="0.4" d="M12.1641 28.2422V27.7422V27.2422" stroke="#292D32" stroke-width="1.5" stroke-miterlimit="10" stroke-linecap="round" stroke-linejoin="round"/>
<path opacity="0.4" d="M21.1641 27.2422V17.2422" stroke="#292D32" stroke-width="1.5" stroke-miterlimit="10" stroke-linecap="round" stroke-linejoin="round"/>
<path opacity="0.4" d="M21.1641 10.2422V8.24219" stroke="#292D32" stroke-width="1.5" stroke-miterlimit="10" stroke-linecap="round" stroke-linejoin="round"/>
<path d="M15.1641 15.0422V23.4422C15.1641 24.9822 14.6641 26.2422 13.1641 26.2422H11.1641C9.66406 26.2422 9.16406 24.9822 9.16406 23.4422V15.0422C9.16406 13.5022 9.66406 12.2422 11.1641 12.2422H13.1641C14.6641 12.2422 15.1641 13.5022 15.1641 15.0422Z" stroke="#292D32" stroke-width="1.5" stroke-miterlimit="10" stroke-linecap="round" stroke-linejoin="round"/>
<path d="M24.1641 11.6422V15.8422C24.1641 16.6122 23.6641 17.2422 22.1641 17.2422H20.1641C18.6641 17.2422 18.1641 16.6122 18.1641 15.8422V11.6422C18.1641 10.8722 18.6641 10.2422 20.1641 10.2422H22.1641C23.6641 10.2422 24.1641 10.8722 24.1641 11.6422Z" stroke="#292D32" stroke-width="1.5" stroke-miterlimit="10" stroke-linecap="round" stroke-linejoin="round"/>
<path opacity="0.4" d="M12.1641 11.2422V10.7422V10.2422" stroke="#292D32" stroke-width="1.5" stroke-miterlimit="10" stroke-linecap="round" stroke-linejoin="round"/>
</svg>
